<svg xmlns="http://www.w3.org/2000/svg" viewBox="0 0 100 100" fill="none">
  <circle cx="50" cy="50" r="45" fill="#FFEDD5" />
  <path d="M60.5 32C58.5 30 55 30 53 31C51 32 49.5 33.5 48.5 35C47.5 36.5 46.5 38 45 39C43.5 40 41.5 40.5 39.5 40C37.5 39.5 35.5 38 34 36C32.5 34 31.5 31.5 32 29C32.5 26.5 34.5 24.5 37 23.5C39.5 22.5 42.5 22.5 45 23.5C47.5 24.5 49.5 26.5 50.5 29" fill="#EA580C" />
  <path d="M40 45C36 42 31 41 26 42C21 43 17 46 15 50C13 54 13 59 15 63C17 67 21 70 26 71C31 72 36 71 40 68" stroke="#7C2D12" stroke-width="3" />
  <path d="M50 45C54 42 59 41 64 42C69 43 73 46 75 50C77 54 77 59 75 63C73 67 69 70 64 71C59 72 54 71 50 68" stroke="#7C2D12" stroke-width="3" />
  <path d="M41 75L45 65L50 75L55 65L59 75" stroke="#7C2D12" stroke-width="2" />
  <path d="M45 50C42 50 39 51 37 53C35 55 34 58 34 61C34 64 35 67 37 69C39 71 42 72 45 72C48 72 51 71 53 69C55 67 56 64 56 61C56 58 55 55 53 53C51 51 48 50 45 50Z" fill="#FBBF24" />
  <circle cx="45" cy="58" r="2" fill="#7C2D12" />
</svg>
